<svg width="13" height="16" viewBox="0 0 13 16" fill="none" xmlns="http://www.w3.org/2000/svg">
<path d="M9.43675 3.3125C9.43675 4.05842 9.14043 4.77379 8.61299 5.30124C8.08554 5.82868 7.37017 6.125 6.62425 6.125C5.87833 6.125 5.16296 5.82868 4.63551 5.30124C4.10807 4.77379 3.81175 4.05842 3.81175 3.3125C3.81175 2.56658 4.10807 1.85121 4.63551 1.32376C5.16296 0.796316 5.87833 0.5 6.62425 0.5C7.37017 0.5 8.08554 0.796316 8.61299 1.32376C9.14043 1.85121 9.43675 2.56658 9.43675 3.3125ZM1 13.901C1.0241 12.4253 1.62725 11.0181 2.67938 9.98303C3.73151 8.94795 5.14832 8.36785 6.62425 8.36785C8.10018 8.36785 9.51699 8.94795 10.5691 9.98303C11.6212 11.0181 12.2244 12.4253 12.2485 13.901C10.484 14.7101 8.56536 15.1276 6.62425 15.125C4.61725 15.125 2.71225 14.687 1 13.901Z" stroke="black" stroke-width="0.5" stroke-linecap="round" stroke-linejoin="round"/>
</svg>
