<svg width="216" height="244" viewBox="0 0 216 244" fill="none" xmlns="http://www.w3.org/2000/svg">
<path d="M0 78.3607C0 74.5797 4.03468 72.1668 7.36567 73.9557L102.366 124.975C103.988 125.846 105 127.539 105 129.38V190.067L90 181V136L16.1538 95.8027V150.5L0 140.5V78.3607Z" fill="#FFB341"/>
<path d="M0 195.01C0 197.013 1.19567 198.823 3.03832 199.609L98.0383 240.13C101.337 241.536 105 239.116 105 235.53V195.5L90 185V220.5L16.1538 187.767V154.5L0 145V195.01Z" fill="#FFB341"/>
<path d="M8.40755 65.3185C4.83583 63.4839 4.77447 58.4001 8.30087 56.4798L109.537 1.352C111.078 0.513071 112.945 0.542861 114.458 1.4305L208.224 56.4385C211.611 58.4249 211.491 63.3602 208.013 65.1809L109.024 117L8.40755 65.3185Z" fill="#53AFBE"/>
<path d="M216 78.3992C216 74.6093 211.948 72.1972 208.617 74.0039L120 122.058L112 127V235.567C112 239.365 116.067 241.776 119.399 239.954L213.399 188.553C215.003 187.676 216 185.994 216 184.166V78.3992Z" fill="#FD5C37"/>
</svg>
