<svg width="1193" height="305" viewBox="0 0 1193 305" fill="none" xmlns="http://www.w3.org/2000/svg">
<path d="M17.5 242V67H67V242H17.5ZM188.217 104.25C198.717 104.25 208.217 106.417 216.717 110.75C225.217 114.917 231.883 121.417 236.717 130.25C241.717 139.083 244.217 150.5 244.217 164.5V242H196.717V172.25C196.717 162.583 194.717 155.583 190.717 151.25C186.883 146.75 181.467 144.5 174.467 144.5C169.467 144.5 164.883 145.667 160.717 148C156.55 150.167 153.3 153.583 150.967 158.25C148.633 162.917 147.467 169 147.467 176.5V242H99.9668V106.5H145.217V145L136.467 133.75C141.633 123.917 148.717 116.583 157.717 111.75C166.717 106.75 176.883 104.25 188.217 104.25ZM359.289 244.25C347.122 244.25 336.956 241.75 328.789 236.75C320.789 231.75 314.789 224.083 310.789 213.75C306.789 203.417 304.789 190.167 304.789 174C304.789 158.167 306.872 145.083 311.039 134.75C315.372 124.417 321.622 116.75 329.789 111.75C337.956 106.75 347.789 104.25 359.289 104.25C371.622 104.25 382.789 107.083 392.789 112.75C402.956 118.417 410.956 126.5 416.789 137C422.789 147.333 425.789 159.667 425.789 174C425.789 188.5 422.789 201 416.789 211.5C410.956 221.833 402.956 229.917 392.789 235.75C382.789 241.417 371.622 244.25 359.289 244.25ZM274.039 242V56.5H321.539V129.25L319.039 174L319.289 218.75V242H274.039ZM349.289 206.5C354.622 206.5 359.372 205.25 363.539 202.75C367.872 200.25 371.289 196.583 373.789 191.75C376.456 186.75 377.789 180.833 377.789 174C377.789 167.167 376.456 161.417 373.789 156.75C371.289 151.917 367.872 148.25 363.539 145.75C359.372 143.25 354.622 142 349.289 142C343.956 142 339.122 143.25 334.789 145.75C330.622 148.25 327.206 151.917 324.539 156.75C322.039 161.417 320.789 167.167 320.789 174C320.789 180.833 322.039 186.75 324.539 191.75C327.206 196.583 330.622 200.25 334.789 202.75C339.122 205.25 343.956 206.5 349.289 206.5Z" fill="black"/>
<path d="M703.5 242L765.75 160.25L764.75 187.25L705 106.5H758.5L792 154.25L772 155.25L807.5 106.5H857.75L798 185.5V159.5L859.5 242H805.25L770.25 191L790.25 193.75L755 242H703.5ZM921.785 134.75H1003.04V171.75H921.785V134.75ZM925.285 203.75H1016.79V242H876.285V67H1013.54V105.25H925.285V203.75ZM1100.52 244.25C1088.18 244.25 1076.93 241.417 1066.77 235.75C1056.77 229.917 1048.77 221.833 1042.77 211.5C1036.77 201 1033.77 188.5 1033.77 174C1033.77 159.667 1036.77 147.333 1042.77 137C1048.77 126.5 1056.77 118.417 1066.77 112.75C1076.93 107.083 1088.18 104.25 1100.52 104.25C1112.18 104.25 1122.02 106.75 1130.02 111.75C1138.18 116.75 1144.35 124.417 1148.52 134.75C1152.68 145.083 1154.77 158.167 1154.77 174C1154.77 190.167 1152.77 203.417 1148.77 213.75C1144.77 224.083 1138.77 231.75 1130.77 236.75C1122.77 241.75 1112.68 244.25 1100.52 244.25ZM1110.52 206.5C1115.85 206.5 1120.6 205.25 1124.77 202.75C1129.1 200.25 1132.52 196.583 1135.02 191.75C1137.52 186.75 1138.77 180.833 1138.77 174C1138.77 167.167 1137.52 161.417 1135.02 156.75C1132.52 151.917 1129.1 148.25 1124.77 145.75C1120.6 143.25 1115.85 142 1110.52 142C1105.02 142 1100.1 143.25 1095.77 145.75C1091.6 148.25 1088.27 151.917 1085.77 156.75C1083.27 161.417 1082.02 167.167 1082.02 174C1082.02 180.833 1083.27 186.75 1085.77 191.75C1088.27 196.583 1091.6 200.25 1095.77 202.75C1100.1 205.25 1105.02 206.5 1110.52 206.5ZM1140.27 242V218.75L1140.52 174L1138.02 129.25V56.5H1185.52V242H1140.27Z" fill="black"/>
<path d="M463 102.361C463 98.5797 467.035 96.1668 470.366 97.9557L565.366 148.975C566.988 149.846 568 151.539 568 153.38V214.067L553 205V160L479.154 119.803V174.5L463 164.5V102.361Z" fill="#FFB341"/>
<path d="M463 219.01C463 221.013 464.196 222.823 466.038 223.609L561.038 264.13C564.337 265.536 568 263.116 568 259.53V219.5L553 209V244.5L479.154 211.767V178.5L463 169V219.01Z" fill="#FFB341"/>
<path d="M471.408 89.3185C467.836 87.4839 467.774 82.4001 471.301 80.4798L572.537 25.352C574.078 24.5131 575.945 24.5429 577.458 25.4305L671.224 80.4385C674.611 82.4249 674.491 87.3602 671.013 89.1809L572.024 141L471.408 89.3185Z" fill="#53AFBE"/>
<path d="M679 102.399C679 98.6093 674.948 96.1972 671.617 98.0039L583 146.058L575 151V259.567C575 263.365 579.067 265.776 582.399 263.954L676.399 212.553C678.003 211.676 679 209.994 679 208.166V102.399Z" fill="#FD5C37"/>
</svg>
