<svg width="94" height="24" viewBox="0 0 94 24" fill="none" xmlns="http://www.w3.org/2000/svg">
<path d="M1.36975 19.0054V5.3077H5.24423V19.0054H1.36975ZM14.7322 8.22335C15.554 8.22335 16.2976 8.39296 16.9629 8.73212C17.6283 9.05828 18.15 9.56705 18.5284 10.2584C18.9198 10.9498 19.1154 11.8434 19.1154 12.9393V19.0054H15.3975V13.5459C15.3975 12.7892 15.241 12.2413 14.9279 11.9022C14.6278 11.5499 14.2038 11.3738 13.6559 11.3738C13.2646 11.3738 12.9058 11.4652 12.5797 11.6478C12.2535 11.8174 11.9991 12.0848 11.8165 12.4501C11.6338 12.8154 11.5426 13.2915 11.5426 13.8785V19.0054H7.82463V8.39946H11.3665V11.4129L10.6816 10.5324C11.0859 9.76273 11.6404 9.18868 12.3449 8.81039C13.0493 8.41903 13.845 8.22335 14.7322 8.22335ZM28.1224 19.1815C27.1701 19.1815 26.3743 18.9858 25.7351 18.5944C25.1089 18.2031 24.6393 17.603 24.3262 16.7942C24.0131 15.9854 23.8566 14.9483 23.8566 13.6828C23.8566 12.4436 24.0196 11.4194 24.3458 10.6107C24.6849 9.80187 25.1741 9.20175 25.8134 8.81039C26.4526 8.41903 27.2223 8.22335 28.1224 8.22335C29.0877 8.22335 29.9618 8.44509 30.7445 8.88866C31.5403 9.33223 32.1665 9.96491 32.6231 10.7868C33.0927 11.5956 33.3275 12.561 33.3275 13.6828C33.3275 14.8178 33.0927 15.7962 32.6231 16.6181C32.1665 17.4269 31.5403 18.0596 30.7445 18.5162C29.9618 18.9597 29.0877 19.1815 28.1224 19.1815ZM21.4497 19.0054V4.48584H25.1676V10.1802L24.9719 13.6828L24.9915 17.1855V19.0054H21.4497ZM27.3397 16.2267C27.7571 16.2267 28.1289 16.1289 28.4551 15.9332C28.7942 15.7375 29.0617 15.4505 29.2573 15.0722C29.4661 14.6808 29.5704 14.2177 29.5704 13.6828C29.5704 13.148 29.4661 12.6979 29.2573 12.3326C29.0617 11.9544 28.7942 11.6673 28.4551 11.4717C28.1289 11.276 27.7571 11.1781 27.3397 11.1781C26.9222 11.1781 26.5439 11.276 26.2047 11.4717C25.8786 11.6673 25.6112 11.9544 25.4024 12.3326C25.2068 12.6979 25.1089 13.148 25.1089 13.6828C25.1089 14.2177 25.2068 14.6808 25.4024 15.0722C25.6112 15.4505 25.8786 15.7375 26.2047 15.9332C26.5439 16.1289 26.9222 16.2267 27.3397 16.2267Z" fill="#FFFFFE"/>
<path d="M55.0646 19.0054L59.937 12.6066L59.8588 14.72L55.182 8.39946H59.3696L61.9917 12.137L60.4262 12.2152L63.2049 8.39946H67.1381L62.4613 14.583V12.5479L67.2751 19.0054H63.0288L60.2893 15.0135L61.8547 15.2287L59.0956 19.0054H55.0646ZM72.1503 10.6107H78.5103V13.5067H72.1503V10.6107ZM72.4242 16.0115H79.5865V19.0054H68.5889V5.3077H79.3321V8.30162H72.4242V16.0115ZM86.1403 19.1815C85.1744 19.1815 84.2938 18.9597 83.4986 18.5162C82.7159 18.0596 82.0897 17.4269 81.6201 16.6181C81.1504 15.7962 80.9156 14.8178 80.9156 13.6828C80.9156 12.561 81.1504 11.5956 81.6201 10.7868C82.0897 9.96491 82.7159 9.33223 83.4986 8.88866C84.2938 8.44509 85.1744 8.22335 86.1403 8.22335C87.0529 8.22335 87.8231 8.41903 88.4493 8.81039C89.088 9.20175 89.571 9.80187 89.8974 10.6107C90.223 11.4194 90.3866 12.4436 90.3866 13.6828C90.3866 14.9483 90.23 15.9854 89.9169 16.7942C89.6038 17.603 89.1342 18.2031 88.508 18.5944C87.8818 18.9858 87.0921 19.1815 86.1403 19.1815ZM86.923 16.2267C87.3402 16.2267 87.712 16.1289 88.0384 15.9332C88.3773 15.7375 88.645 15.4505 88.8407 15.0722C89.0364 14.6808 89.1342 14.2177 89.1342 13.6828C89.1342 13.148 89.0364 12.6979 88.8407 12.3326C88.645 11.9544 88.3773 11.6673 88.0384 11.4717C87.712 11.276 87.3402 11.1781 86.923 11.1781C86.4925 11.1781 86.1074 11.276 85.7685 11.4717C85.4421 11.6673 85.1814 11.9544 84.9858 12.3326C84.7901 12.6979 84.6922 13.148 84.6922 13.6828C84.6922 14.2177 84.7901 14.6808 84.9858 15.0722C85.1814 15.4505 85.4421 15.7375 85.7685 15.9332C86.1074 16.1289 86.4925 16.2267 86.923 16.2267ZM89.2516 19.0054V17.1855L89.2712 13.6828L89.0755 10.1802V4.48584H92.7934V19.0054H89.2516Z" fill="#FFFFFE"/>
<path d="M36.2401 8.07553C36.2401 7.77956 36.5559 7.59069 36.8167 7.73071L44.2525 11.7241C44.3795 11.7923 44.4587 11.9248 44.4587 12.0689V16.819L43.2846 16.1093V12.5871L37.5045 9.44075V13.722L36.2401 12.9393V8.07553Z" fill="#FFB341"/>
<path d="M36.2401 17.2059C36.2401 17.3627 36.3337 17.5044 36.4779 17.5659L43.9138 20.7376C44.172 20.8476 44.4587 20.6582 44.4587 20.3775V17.2443L43.2846 16.4224V19.2011L37.5045 16.639V14.0351L36.2401 13.2915V17.2059Z" fill="#FFB341"/>
<path d="M36.8983 7.05471C36.6187 6.91111 36.6138 6.51319 36.8899 6.36288L44.8139 2.0479C44.9345 1.98224 45.0806 1.98457 45.199 2.05404L52.5383 6.35965C52.8034 6.51513 52.7941 6.90143 52.5218 7.04394L44.7737 11.0999L36.8983 7.05471Z" fill="#53AFBE"/>
<path d="M53.1469 8.07854C53.1469 7.78191 52.8298 7.59311 52.569 7.73453L45.6328 11.4958L45.0066 11.8827V20.3805C45.0066 20.6777 45.3249 20.8665 45.5857 20.7238L52.9433 16.7006C53.0689 16.6319 53.1469 16.5003 53.1469 16.3572V8.07854Z" fill="#FD5C37"/>
</svg>
