<?xml version="1.0" encoding="utf-8"?>
<!-- Generator: Adobe Illustrator 19.0.0, SVG Export Plug-In . SVG Version: 6.00 Build 0)  -->
<svg version="1.1" id="layer" xmlns="http://www.w3.org/2000/svg" xmlns:xlink="http://www.w3.org/1999/xlink" x="0px" y="0px"
	 viewBox="-153 -46 652 652" style="enable-background:new -153 -46 652 652;" xml:space="preserve">
<style type="text/css">
	.st0{fill:#373948;}
</style>
<path class="st0" d="M-128.9,244.1v92.7c0,4.2,1.3,5.3,5.9,5.3h13.3c4.6,0,5.9-1.1,5.9-5.3v-92.7c0-4.2-1.3-5.3-5.9-5.3H-123
	C-127.7,238.9-128.9,239.9-128.9,244.1 M-101.1,213.4v-1.3c0-10.1-6.1-14.5-14.7-14.5h-1.1c-8.2,0-14.7,4.4-14.7,14.5v1.3
	c0,9.5,4,14.7,14.7,14.7h1.1C-107.2,228.1-101.1,222.8-101.1,213.4 M-30.8,334.5c5.7-5.5,8.4-13.1,8.4-22.8v-2.5
	c0-7.4-1.3-12.9-4.6-17.5c-4.2-5.5-11.2-9.1-21.3-11.4l-13.1-2.9c-6.5-1.5-10.7-3.2-10.7-9.5v-1.5c0-3.2,0.8-5.3,2.9-6.7
	c2.3-1.7,6.1-2.3,13.1-2.3c6.7,0,15.6,1.7,20.4,3.4c2.7,0.8,4.6,0.4,5.3-2.7l2.5-11.8c0.6-3.2,0.2-4-2.7-5.1
	c-5.9-2.1-17.5-4.2-28.2-4.2c-13.9,0-22.5,2.3-28.4,7c-5.9,4.6-9.3,11.4-9.3,22.8v1.9c0,8.2,2.1,14.7,6.3,19.4
	c4,4.4,8.4,7.2,18.5,9.5l12.6,2.9c8.6,2.1,12.2,4.2,12.2,11v1.5c0,4-1.1,6.5-3.6,8.2c-2.7,1.9-6.7,2.5-13.7,2.5
	c-7.4,0-17.7-2.5-25.3-5.5c-3.2-1.3-5.1-0.2-5.9,3.2l-2.3,10.3c-0.8,3.6-0.4,4.8,3.4,6.3c9.1,3.8,21.3,6.1,32.2,6.1
	C-47.8,344-37.5,340.8-30.8,334.5 M42.5,309.9c0,9.7-4,14.1-13.7,14.1h-7.6c-4.6,0-7.6-1.1-9.3-2.5c-2.1-1.9-3.2-4.8-3.2-9.5v-2.5
	c0-4.8,0.8-8.4,3.2-10.3c2.1-1.9,6.1-2.5,11-2.5h7.4c4.2,0,8.6,0.2,12.2,0.4L42.5,309.9z M67.6,338.1v-66.6c0-15-3.4-22.5-11-27.8
	c-7.2-4.8-15.4-6.7-30.3-6.7c-11.2,0-24,2.5-31.8,5.1c-3.6,1.1-4,2.7-3.2,6.3l1.9,9.9c0.6,2.9,1.9,4.4,5.3,3.4
	c8.4-2.5,18.3-4,25.9-4s11.6,0.6,14.5,2.9c2.5,2.1,3.6,5.3,3.6,10.7v5.7c-3.6-0.2-8-0.4-11.8-0.4h-7.6c-14.3,0-24.2,2.3-30.8,7.8
	c-6.1,5.1-8.8,13.1-8.8,24.4v4.8c0,10.1,2.9,18.3,9.1,23.6c5.7,4.8,12.2,6.7,23.2,6.7h7.8c12.6,0,19.2-3.8,23.2-10.7h0.4l1.3,5.1
	c0.6,2.7,1.9,3.8,5.1,3.8h9.7C66.1,342.1,67.6,340.8,67.6,338.1 M220.5,336.8V277c0-14.1-3.2-24.7-9.9-31.2c-6.1-6.1-15-8.8-27-8.8
	c-11.6,0-22.3,4-31.6,11.8c-5.9-7.4-16-11.8-29.3-11.8c-11.8,0-21.1,4-27.8,10.7h-0.6l-1.1-5.1c-0.6-3.2-1.9-3.8-5.5-3.8h-7.8
	c-3.6,0-5.1,1.3-5.1,4.8v93.1c0,4.2,1.3,5.3,5.9,5.3h13.3c4.6,0,5.9-1.1,5.9-5.3v-61.3c0-8.6,1.7-12,4.4-14.5
	c2.7-2.5,7.4-3.8,13.5-3.8c6.7,0,10.1,1.3,13.3,4.4c3.4,3.4,4.4,8,4.4,16.4v58.8c0,4.2,1.3,5.3,5.9,5.3h13.3c4.6,0,5.9-1.1,5.9-5.3
	v-57.5c0-5.9-0.2-10.5-0.6-14.1c4.5-5.1,10.9-8,17.7-8c7,0,11,1.5,13.7,4.6c2.9,3.4,4,8,4,16.2v58.8c0,4.2,1.3,5.3,5.9,5.3h13.3
	C219.2,342.1,220.5,341.1,220.5,336.8 M302,311.8v-2.5c0-7.4-1.3-12.9-4.6-17.5c-4.2-5.5-11.2-9.1-21.3-11.4l-13.1-2.9
	c-6.5-1.5-10.7-3.2-10.7-9.5v-1.5c0-3.2,0.8-5.3,2.9-6.7c2.3-1.7,6.1-2.3,13.1-2.3c6.7,0,15.6,1.7,20.4,3.4c2.7,0.8,4.6,0.4,5.3-2.7
	l2.5-11.8c0.6-3.2,0.2-4-2.7-5.1c-5.9-2.1-17.5-4.2-28.2-4.2c-13.9,0-22.5,2.3-28.4,7c-5.9,4.6-9.3,11.4-9.3,22.8v1.9
	c0,8.2,2.1,14.7,6.3,19.4c4,4.4,8.4,7.2,18.5,9.5l12.6,3c8.6,2.1,12.2,4.2,12.2,11v1.5c0,4-1.1,6.5-3.6,8.2
	c-2.7,1.9-6.7,2.5-13.7,2.5c-7.4,0-17.7-2.5-25.3-5.5c-3.2-1.3-5.1-0.2-5.9,3.2l-2.3,10.3c-0.8,3.6-0.4,4.8,3.4,6.3
	c9.1,3.8,21.3,6.1,32.2,6.1c14.1,0,24.4-3.2,31.2-9.5C299.2,329,301.9,321.5,302,311.8 M323,309.6h10.1c4.6,0,8,0.7,10.1,2
	c2.1,1.3,3.1,3.4,3.1,6.3c0,1.9-0.5,3.5-1.4,4.8c-0.9,1.2-2.2,2-3.6,2.3v0.2c2.1,0.5,3.6,1.3,4.5,2.6c0.9,1.3,1.4,2.9,1.4,5
	c0,3-1.1,5.3-3.2,7s-5.1,2.5-8.7,2.5H323L323,309.6z M329.9,322.5h4c1.9,0,3.2-0.3,4.1-0.9c0.8-0.6,1.3-1.5,1.3-2.9
	c0-1.2-0.5-2.1-1.4-2.7c-0.9-0.5-2.4-0.8-4.3-0.8h-3.6L329.9,322.5z M329.9,328v8.5h4.5c1.9,0,3.3-0.4,4.2-1.1
	c0.9-0.7,1.4-1.8,1.4-3.3c0-2.7-1.9-4.1-5.8-4.1L329.9,328z M349.1,317.3h7.4l4.7,14c0.4,1.2,0.7,2.7,0.8,4.3h0.1
	c0.2-1.5,0.5-2.9,1-4.3l4.6-14h7.3l-10.5,28.1c-1,2.6-2.3,4.5-4.1,5.8c-1.8,1.3-3.9,1.9-6.3,1.9c-1.2,0-2.3-0.1-3.5-0.4v-5.4
	c0.9,0.2,1.8,0.3,2.7,0.3c1.1,0,2.3-0.4,3.2-1.1c0.9-0.7,1.6-1.8,2.1-3.3l0.4-1.2L349.1,317.3z M390.1,342.2v-32.6h6.9v32.6H390.1z
	 M411.7,329.7v12.5h-6.9v-32.6h9.5c4.4,0,7.7,0.8,9.8,2.4c2.1,1.6,3.2,4.1,3.2,7.3c0,1.9-0.5,3.6-1.6,5.1c-1.1,1.5-2.5,2.7-4.5,3.5
	c4.9,7.3,8.1,12.1,9.6,14.2h-7.7l-7.8-12.5L411.7,329.7z M411.7,324.1h2.2c2.2,0,3.8-0.4,4.8-1.1c1-0.7,1.6-1.9,1.6-3.4
	c0-1.5-0.5-2.6-1.6-3.3c-1.1-0.7-2.7-1-4.9-1h-2.1L411.7,324.1z M434.4,342.2v-32.6h6.9v32.6H434.4z M468.3,333.1
	c0,2.9-1.1,5.3-3.2,7c-2.1,1.7-5.1,2.5-8.8,2.5c-3.5,0-6.6-0.7-9.2-2v-6.4c2.2,1,4.1,1.7,5.6,2.1c1.4,0.4,2.8,0.6,4.2,0.6
	c1.5,0,2.7-0.3,3.5-0.9c0.8-0.6,1.2-1.4,1.2-2.6c0-0.6-0.2-1.2-0.5-1.7c-0.4-0.6-1-1.1-1.6-1.4c-0.7-0.5-2.1-1.2-4.2-2.2
	c-2-0.9-3.5-1.8-4.5-2.7c-1-0.8-1.8-1.9-2.4-3c-0.6-1.1-0.9-2.5-0.9-4c0-2.9,1-5.1,2.9-6.8s4.7-2.5,8.1-2.5c1.6,0,3.3,0.2,4.8,0.6
	c1.6,0.4,3.3,1,4.8,1.7l-2.2,5.4c-1.7-0.7-3.2-1.2-4.3-1.5c-1.1-0.3-2.2-0.4-3.4-0.4c-1.3,0-2.3,0.3-3,0.9c-0.7,0.6-1,1.4-1,2.4
	c0,0.6,0.1,1.1,0.4,1.6c0.3,0.5,0.7,0.9,1.3,1.3c0.6,0.4,2.1,1.2,4.4,2.3c3,1.5,5.1,2.9,6.3,4.4C467.8,329.2,468.3,331,468.3,333.1z
	"/>
</svg>
